<svg width="24" height="24" viewBox="0 0 24 24" fill="none" xmlns="http://www.w3.org/2000/svg">
<path d="M2.99622 10.4313V8.17539C2.99602 7.44844 3.39012 6.77859 4.02564 6.42566L5.99747 5.3302" stroke="#323232" stroke-width="1.5" stroke-linecap="round" stroke-linejoin="round"/>
<path d="M15.0012 20.3364L12.9714 21.4639C12.367 21.7998 11.632 21.7998 11.0276 21.4639L8.99872 20.3364" stroke="#323232" stroke-width="1.5" stroke-linecap="round" stroke-linejoin="round"/>
<path d="M21.0038 13.5686V15.8245C21.0036 16.5511 20.6095 17.2205 19.9743 17.5733L18.0025 18.6697" stroke="#323232" stroke-width="1.5" stroke-linecap="round" stroke-linejoin="round"/>
<path d="M12 2.28589V4.99702" stroke="#323232" stroke-width="1.5" stroke-linecap="round" stroke-linejoin="round"/>
<path d="M12 19.0029V21.7141" stroke="#323232" stroke-width="1.5" stroke-linecap="round" stroke-linejoin="round"/>
<path d="M3.27637 7.15796L5.61734 8.4485" stroke="#323232" stroke-width="1.5" stroke-linecap="round" stroke-linejoin="round"/>
<path d="M7.79822 10.4593C7.95105 9.89524 8.46135 9.50239 9.04574 9.4989C9.7745 9.4989 10.3653 10.0897 10.3653 10.8185C10.3653 11.471 9.83631 11.9999 9.18379 11.9999C9.83631 11.9999 10.3653 12.5289 10.3653 13.1814C10.3653 13.9102 9.7745 14.501 9.04574 14.501C8.46135 14.4975 7.95105 14.1046 7.79822 13.5406" stroke="#323232" stroke-width="1.5" stroke-linecap="round" stroke-linejoin="round"/>
<path fill-rule="evenodd" clip-rule="evenodd" d="M14.2759 14.501H12.8663V9.4989H14.2759C15.3395 9.4989 16.2017 10.3611 16.2017 11.4247V12.5762C16.2006 13.6392 15.3389 14.5004 14.2759 14.501V14.501Z" stroke="#323232" stroke-width="1.5" stroke-linecap="round" stroke-linejoin="round"/>
<path d="M18.3826 15.5515L20.7236 16.8421" stroke="#323232" stroke-width="1.5" stroke-linecap="round" stroke-linejoin="round"/>
<path d="M21.0038 10.4313V8.17539C21.0036 7.4488 20.6095 6.77941 19.9743 6.42666L18.0025 5.3302" stroke="#323232" stroke-width="1.5" stroke-linecap="round" stroke-linejoin="round"/>
<path d="M8.99872 3.66356L11.0286 2.53609C11.633 2.20021 12.368 2.20021 12.9724 2.53609L15.0012 3.66356" stroke="#323232" stroke-width="1.5" stroke-linecap="round" stroke-linejoin="round"/>
<path d="M2.99622 13.5686V15.8245C2.99639 16.5511 3.39044 17.2205 4.02564 17.5733L5.99747 18.6697" stroke="#323232" stroke-width="1.5" stroke-linecap="round" stroke-linejoin="round"/>
<path d="M20.7236 7.15796L18.3826 8.4485" stroke="#323232" stroke-width="1.5" stroke-linecap="round" stroke-linejoin="round"/>
<path d="M5.61734 15.5515L3.27637 16.8421" stroke="#323232" stroke-width="1.5" stroke-linecap="round" stroke-linejoin="round"/>
</svg>
