<svg width="24" height="24" viewBox="0 0 24 24" fill="none" xmlns="http://www.w3.org/2000/svg">
<path d="M9.99917 18.5027V14.0009" stroke="#323232" stroke-width="1.5" stroke-linecap="round" stroke-linejoin="round"/>
<path d="M9.26663 16.7342C9.98192 17.4495 10.1959 18.5253 9.80879 19.4599C9.42167 20.3944 8.5097 21.0038 7.49812 21.0038C6.48655 21.0038 5.57458 20.3944 5.18746 19.4599C4.80035 18.5253 5.01433 17.4495 5.72962 16.7342C6.70634 15.7575 8.28991 15.7575 9.26663 16.7342" stroke="#323232" stroke-width="1.5" stroke-linecap="round" stroke-linejoin="round"/>
<path d="M19.2708 14.7334C19.9861 15.4487 20.2001 16.5244 19.813 17.459C19.4259 18.3936 18.5139 19.0029 17.5023 19.0029C16.4907 19.0029 15.5788 18.3936 15.1916 17.459C14.8045 16.5244 15.0185 15.4487 15.7338 14.7334C16.7105 13.7567 18.2941 13.7567 19.2708 14.7334" stroke="#323232" stroke-width="1.5" stroke-linecap="round" stroke-linejoin="round"/>
<path d="M20.0033 16.5025V5.99846C20.0033 5.66943 19.8415 5.36143 19.5706 5.17472C19.2997 4.98801 18.9542 4.94646 18.6468 5.06359L14.0008 6.83339" stroke="#323232" stroke-width="1.5" stroke-linecap="round" stroke-linejoin="round"/>
<path d="M7.24802 11.4998C4.89983 11.4998 2.99625 9.59617 2.99625 7.24799C2.99625 4.8998 4.89983 2.99622 7.24802 2.99622C9.59621 2.99622 11.4998 4.8998 11.4998 7.24799C11.4997 9.59613 9.59616 11.4997 7.24802 11.4998" stroke="#323232" stroke-width="1.5" stroke-linecap="round" stroke-linejoin="round"/>
<path d="M8.66492 6.53906L6.89406 8.31099L5.83112 7.24805" stroke="#323232" stroke-width="1.5" stroke-linecap="round" stroke-linejoin="round"/>
</svg>
