<svg width="24" height="24" viewBox="0 0 24 24" fill="none" xmlns="http://www.w3.org/2000/svg">
<path d="M11.928 2.99622C16.9006 2.99622 20.9317 7.02733 20.9317 12C20.9317 16.9726 16.9006 21.0037 11.928 21.0037" stroke="#323232" stroke-width="1.5" stroke-linecap="round" stroke-linejoin="round"/>
<path d="M8.85169 20.4525C7.86475 20.0952 6.94791 19.5681 6.14256 18.8949" stroke="#323232" stroke-width="1.5" stroke-linecap="round" stroke-linejoin="round"/>
<path d="M6.14256 5.10513C6.94742 4.43128 7.8644 3.90405 8.85169 3.54749" stroke="#323232" stroke-width="1.5" stroke-linecap="round" stroke-linejoin="round"/>
<path d="M3.06828 10.4374C3.24905 9.40265 3.61037 8.40776 4.13572 7.49817" stroke="#323232" stroke-width="1.5" stroke-linecap="round" stroke-linejoin="round"/>
<path d="M3.06828 13.5616C3.24894 14.5967 3.61026 15.592 4.13572 16.5019" stroke="#323232" stroke-width="1.5" stroke-linecap="round" stroke-linejoin="round"/>
<path d="M12.3301 15.3314L14.0008 12H9.99916L11.6699 8.66858" stroke="#323232" stroke-width="1.5" stroke-linecap="round" stroke-linejoin="round"/>
<path d="M12.3301 15.3314L14.0008 12H9.99916L11.6699 8.66858" stroke="#323232" stroke-width="1.5" stroke-linecap="round" stroke-linejoin="round"/>
<circle cx="12" cy="12" r="9.00375" stroke="#323232" stroke-width="1.5" stroke-linecap="round" stroke-linejoin="round"/>
</svg>
