<svg width="24" height="24" viewBox="0 0 24 24" fill="none" xmlns="http://www.w3.org/2000/svg">
<path d="M11.928 2.99634C16.9006 2.99634 20.9317 7.02745 20.9317 12.0001C20.9317 16.9727 16.9006 21.0038 11.928 21.0038" stroke="#0071E3" stroke-width="1.5" stroke-linecap="round" stroke-linejoin="round"/>
<path d="M8.85171 20.4527C7.86477 20.0953 6.94792 19.5682 6.14258 18.895" stroke="#0071E3" stroke-width="1.5" stroke-linecap="round" stroke-linejoin="round"/>
<path d="M6.14258 5.10526C6.94744 4.4314 7.86442 3.90417 8.85171 3.54761" stroke="#0071E3" stroke-width="1.5" stroke-linecap="round" stroke-linejoin="round"/>
<path d="M3.0683 10.4375C3.24907 9.40278 3.61039 8.40789 4.13574 7.49829" stroke="#0071E3" stroke-width="1.5" stroke-linecap="round" stroke-linejoin="round"/>
<path d="M3.0683 13.5618C3.24896 14.5969 3.61028 15.5921 4.13574 16.502" stroke="#0071E3" stroke-width="1.5" stroke-linecap="round" stroke-linejoin="round"/>
<path d="M12.3301 15.3315L14.0008 12.0001H9.99915L11.6698 8.6687" stroke="#0071E3" stroke-width="1.5" stroke-linecap="round" stroke-linejoin="round"/>
<path d="M12.3301 15.3315L14.0008 12.0001H9.99915L11.6698 8.6687" stroke="#0071E3" stroke-width="1.5" stroke-linecap="round" stroke-linejoin="round"/>
<circle cx="12" cy="12.0001" r="9.00375" stroke="#0071E3" stroke-width="1.5" stroke-linecap="round" stroke-linejoin="round"/>
</svg>
