<svg width="24" height="24" viewBox="0 0 24 24" fill="none" xmlns="http://www.w3.org/2000/svg">
<path fill-rule="evenodd" clip-rule="evenodd" d="M12.2976 19.0029H11.7024C11.2475 19.0029 10.8062 19.1579 10.4512 19.4423L9.05112 20.5642C8.69614 20.8487 8.25482 21.0037 7.79993 21.0037H5.99747C4.33992 21.0037 2.99622 19.66 2.99622 18.0024V15.0012C2.99622 13.8962 3.89202 13.0004 4.99705 13.0004H19.0029C20.1079 13.0004 21.0037 13.8962 21.0037 15.0012V18.0024C21.0037 19.66 19.66 21.0037 18.0025 21.0037H16.2C15.7451 21.0037 15.3038 20.8487 14.9488 20.5642L13.5488 19.4423C13.1938 19.1579 12.7525 19.0029 12.2976 19.0029Z" stroke="#0071e3" stroke-width="1.5" stroke-linecap="round" stroke-linejoin="round"/>
<path d="M21.0037 15.0013V12.4748C21.0037 12.1554 20.9655 11.8372 20.8899 11.527L19.7985 7.05048C19.3638 5.26729 17.7717 4.00846 15.9363 3.9967" stroke="#0071e3" stroke-width="1.5" stroke-linecap="round" stroke-linejoin="round"/>
<path d="M2.99622 15.0013V12.4748C2.99622 12.1554 3.03444 11.8372 3.11008 11.527L4.20142 7.05048C4.63614 5.26729 6.22822 4.00846 8.0636 3.9967" stroke="#0071e3" stroke-width="1.5" stroke-linecap="round" stroke-linejoin="round"/>
<path d="M5.99752 16.0017V17.0021" stroke="#0071e3" stroke-width="1.5" stroke-linecap="round" stroke-linejoin="round"/>
</svg>
