<svg width="24" height="24" viewBox="0 0 24 24" fill="none" xmlns="http://www.w3.org/2000/svg">
<path d="M9.14879 17.3723L9.8891 14.441" stroke="#323232" stroke-width="1.5" stroke-linecap="round" stroke-linejoin="round"/>
<path d="M14.1109 14.441L14.8412 17.3823" stroke="#323232" stroke-width="1.5" stroke-linecap="round" stroke-linejoin="round"/>
<path d="M7.53815 5.02711C8.10612 3.22748 9.77274 2.00179 11.6599 1.99585H12.3401C14.2273 2.00179 15.8939 3.22748 16.4619 5.02711" stroke="#323232" stroke-width="1.5" stroke-linecap="round" stroke-linejoin="round"/>
<path d="M16.3118 10.9796V11.0096C16.1378 13.2622 14.2593 15.0013 12 15.0013C9.74068 15.0013 7.86211 13.2622 7.68817 11.0096V10.9796" stroke="#323232" stroke-width="1.5" stroke-linecap="round" stroke-linejoin="round"/>
<path fill-rule="evenodd" clip-rule="evenodd" d="M16.1397 10.9996H7.86034C6.85232 11.0075 6.0237 10.2065 5.9975 9.19881V6.79782C6.0237 5.7901 6.85232 4.9891 7.86034 4.99701H16.1961C17.1848 5.01323 17.9832 5.80919 18.0025 6.79782V9.25339C17.952 10.2416 17.1291 11.013 16.1397 10.9996Z" stroke="#323232" stroke-width="1.5" stroke-linecap="round" stroke-linejoin="round"/>
<path d="M9.99915 7.49813H14.0008" stroke="#323232" stroke-width="1.5" stroke-linecap="round" stroke-linejoin="round"/>
<path d="M2.99622 21.0037V20.6196C2.99622 19.1887 4.00613 17.9568 5.40922 17.6763L8.62356 17.0331L8.93569 17.2412C10.7911 18.4787 13.2088 18.4787 15.0642 17.2412L15.3764 17.0331L18.5907 17.6763C19.9938 17.9568 21.0037 19.1887 21.0037 20.6196V21.0037" stroke="#323232" stroke-width="1.5" stroke-linecap="round" stroke-linejoin="round"/>
</svg>
