<svg width="90" height="18" viewBox="0 0 90 18" fill="none" xmlns="http://www.w3.org/2000/svg">
<path d="M7.78891 -0.00585938C7.78018 -0.00585938 7.77151 -0.00582856 7.76281 -0.00578359L7.72717 2.93833C7.73532 2.93824 7.74348 2.93817 7.75164 2.93817C9.68948 2.93817 11.1926 4.46609 14.4596 9.96907L14.6588 10.3041L14.6718 10.326L16.5006 7.58201L16.488 7.56082C16.0576 6.86082 15.6441 6.21676 15.2475 5.62868C14.7877 4.94727 14.3478 4.33855 13.921 3.79507C11.7598 1.04327 9.95189 -0.00585938 7.78891 -0.00585938Z" fill="url(#paint0_linear_8040_1232)"/>
<path d="M7.76235 -0.00578359C5.58888 0.00539837 3.66738 1.41085 2.27988 3.5615C2.27582 3.56778 2.27175 3.57409 2.2677 3.58041L4.8146 4.96666C4.81874 4.96039 4.82288 4.95412 4.82703 4.94787C5.63725 3.72798 6.64554 2.94992 7.72672 2.93833C7.73487 2.93824 7.74302 2.93817 7.75119 2.93817L7.78845 -0.00585938C7.77973 -0.00585938 7.77106 -0.00582856 7.76235 -0.00578359Z" fill="url(#paint1_linear_8040_1232)"/>
<path d="M2.2801 3.56299C2.27605 3.56928 2.27199 3.57558 2.26792 3.58191C1.35619 5.00117 0.676516 6.7428 0.3092 8.62167C0.307609 8.62981 0.306023 8.63794 0.304443 8.64609L3.16578 9.32123C3.16728 9.31308 3.16879 9.30491 3.17029 9.29675C3.47614 7.64553 4.05842 6.11408 4.81482 4.96815C4.81894 4.96188 4.8231 4.95561 4.82725 4.94936L2.2801 3.56299Z" fill="url(#paint2_linear_8040_1232)"/>
<path d="M3.17021 9.29813L0.309105 8.62305C0.307514 8.63118 0.305929 8.63933 0.304349 8.64747C0.104057 9.68078 0.00215867 10.7307 2.06657e-05 11.7833C3.82543e-06 11.7918 -2.62545e-06 11.8003 9.57596e-07 11.8088L2.93443 12.0713C2.9342 12.0628 2.93394 12.0543 2.93375 12.0458C2.9323 11.9847 2.93156 11.9229 2.93154 11.8601C2.93301 11.009 3.01137 10.1597 3.1657 9.3226C3.16718 9.31445 3.16869 9.3063 3.17021 9.29813Z" fill="url(#paint3_linear_8040_1232)"/>
<path d="M3.02367 12.9824C2.97103 12.6799 2.9412 12.3738 2.93443 12.0668C2.9342 12.0583 2.93395 12.0499 2.93375 12.0413L2.06657e-05 11.7788C3.82543e-06 11.7873 -2.62545e-06 11.7958 9.57596e-07 11.8043C9.57596e-07 12.4594 0.0546284 13.0744 0.160796 13.641C0.162331 13.6492 0.163842 13.6572 0.165398 13.6654L3.02811 13.0069C3.0266 12.9987 3.02513 12.9906 3.02367 12.9824Z" fill="url(#paint4_linear_8040_1232)"/>
<path d="M3.69218 14.5051C3.37288 14.1566 3.1469 13.6538 3.02808 13.0108C3.02658 13.0027 3.02513 12.9945 3.02366 12.9863L0.160767 13.6449C0.1623 13.6531 0.16381 13.6612 0.165369 13.6694C0.381756 14.8055 0.80613 15.7523 1.41387 16.4686C1.41927 16.475 1.42469 16.4813 1.43014 16.4877L3.70925 14.5235C3.70356 14.5174 3.69782 14.5113 3.69218 14.5051Z" fill="url(#paint5_linear_8040_1232)"/>
<path d="M12.1737 6.35889C10.4485 9.00504 9.40339 10.6647 9.40339 10.6647C7.1053 14.2672 6.31028 15.0746 5.03081 15.0746C4.49692 15.0746 4.0509 14.8845 3.7092 14.5211C3.70351 14.515 3.69779 14.5089 3.69215 14.5027L1.41382 16.4662C1.41922 16.4726 1.42464 16.479 1.43009 16.4853C2.26923 17.4635 3.4537 18.0063 4.91902 18.0063C7.13594 18.0063 8.73037 16.961 11.5648 12.0063C11.5648 12.0063 12.7464 9.91975 13.5593 8.48245C13.0558 7.66949 12.5975 6.96571 12.1737 6.35889Z" fill="#0082FB"/>
<path d="M15.2489 2.18457C15.2431 2.19075 15.2371 2.19706 15.2313 2.20326C14.7783 2.68593 14.3435 3.22496 13.9205 3.79687C14.3474 4.34036 14.788 4.95027 15.2479 5.63166C15.7899 4.79505 16.2959 4.11748 16.7918 3.59813C16.7977 3.59199 16.8034 3.58601 16.8093 3.57988L15.2489 2.18457Z" fill="url(#paint6_linear_8040_1232)"/>
<path d="M23.6244 1.92283C22.4212 0.707338 20.9867 -0.00585938 19.4532 -0.00585938C17.836 -0.00585938 16.4758 0.880314 15.2489 2.18222C15.2431 2.18838 15.2371 2.19469 15.2313 2.20089L16.7918 3.59577C16.7977 3.58962 16.8034 3.58364 16.8093 3.57753C17.6175 2.73682 18.3998 2.31707 19.2669 2.31707C20.2003 2.31707 21.0738 2.7564 21.8304 3.5266C21.8363 3.53263 21.8422 3.53862 21.8481 3.54469L23.6423 1.94092C23.6364 1.93485 23.6303 1.92886 23.6244 1.92283Z" fill="#0082FB"/>
<path d="M27.1022 11.3925C27.0348 7.48979 25.6691 4.00083 23.642 1.94046C23.6359 1.93438 23.63 1.9284 23.6239 1.92236L21.8301 3.52613C21.836 3.53217 21.8419 3.53815 21.8478 3.54423C23.3728 5.11072 24.4188 8.02443 24.514 11.3916C24.5141 11.4001 24.5143 11.4086 24.5147 11.4171L27.1025 11.4179C27.1025 11.4094 27.1023 11.4009 27.1022 11.3925Z" fill="url(#paint7_linear_8040_1232)"/>
<path d="M27.1025 11.4203C27.1025 11.4118 27.1023 11.4034 27.1022 11.3949L24.514 11.394C24.5141 11.4025 24.5143 11.411 24.5147 11.4195C24.5188 11.5775 24.5209 11.7365 24.5209 11.8965C24.5209 12.8145 24.3839 13.5566 24.1049 14.0924C24.1008 14.1004 24.0965 14.1084 24.0924 14.1162L26.0221 16.1232C26.0269 16.1159 26.0316 16.1087 26.0364 16.1013C26.7369 15.0204 27.1047 13.5187 27.1047 11.6977C27.1047 11.605 27.104 11.5125 27.1025 11.4203Z" fill="url(#paint8_linear_8040_1232)"/>
<path d="M24.1055 14.0884C24.1013 14.0963 24.097 14.1043 24.0929 14.1122C23.8516 14.5638 23.5071 14.865 23.0569 14.9967L23.9365 17.7692C24.053 17.7296 24.1664 17.6852 24.2767 17.6359C24.3097 17.6213 24.3425 17.6062 24.3749 17.5906C24.3935 17.5817 24.4122 17.5726 24.4306 17.5634C25.0123 17.2735 25.5039 16.8459 25.9015 16.2949C25.9258 16.2613 25.9498 16.2274 25.9733 16.1928C25.99 16.1685 26.0064 16.1439 26.0226 16.1191C26.0274 16.1119 26.0321 16.1046 26.0369 16.0973L24.1055 14.0884Z" fill="url(#paint9_linear_8040_1232)"/>
<path d="M22.4964 15.0718C22.2015 15.0718 21.9412 15.0279 21.6864 14.9141L20.7856 17.7525C21.2919 17.9254 21.8321 18.0033 22.4344 18.0033C22.9892 18.0033 23.4985 17.9204 23.9604 17.7603L23.0809 14.9888C22.8914 15.0456 22.6943 15.0736 22.4964 15.0718Z" fill="url(#paint10_linear_8040_1232)"/>
<path d="M20.6939 14.1043C20.6884 14.0979 20.6828 14.0915 20.6771 14.085L18.6045 16.2405C18.6104 16.2467 18.6161 16.2529 18.6219 16.2591C19.3421 17.0266 20.0298 17.5026 20.8097 17.7639L21.7097 14.9276C21.3812 14.7864 21.0632 14.5305 20.6939 14.1043Z" fill="url(#paint11_linear_8040_1232)"/>
<path d="M20.6773 14.0827C20.0557 13.3597 19.2866 12.156 18.077 10.2095L16.5004 7.58028L16.4878 7.55908L14.6586 10.3024L14.6716 10.3243L15.7886 12.2034C16.8714 14.0153 17.7535 15.3261 18.6047 16.2383C18.6106 16.2445 18.6164 16.2507 18.6221 16.2568L20.694 14.102C20.6885 14.0957 20.6829 14.0892 20.6773 14.0827Z" fill="url(#paint12_linear_8040_1232)"/>
<path d="M32.9249 0.57666H36.3125L42.0726 10.9964L47.8329 0.576669H51.147V17.6983H48.3833V4.57585L43.3324 13.6625H40.7395L35.6887 4.57585V17.6983H32.9249V0.57666Z" fill="#1C1E21"/>
<path d="M60.0622 18.0063C58.7821 18.0063 57.6571 17.7229 56.687 17.1563C55.7165 16.5896 54.9603 15.8049 54.4182 14.8021C53.8761 13.7992 53.6048 12.6496 53.605 11.3533C53.605 10.0407 53.87 8.87886 54.3999 7.86779C54.9298 6.85694 55.6656 6.06606 56.6074 5.49514C57.549 4.92459 58.6315 4.63924 59.8544 4.63908C61.0692 4.63908 62.1147 4.92647 62.9913 5.50123C63.8676 6.07616 64.5423 6.88131 65.0152 7.91668C65.488 8.9522 65.7245 10.167 65.7247 11.5612V12.3193H56.3444C56.5157 13.3631 56.9376 14.1845 57.6103 14.7836C58.2829 15.3829 59.1328 15.6825 60.1602 15.6825C60.9836 15.6825 61.6928 15.5602 62.2882 15.3156C62.8831 15.071 63.4417 14.7001 63.9636 14.2028L65.4312 16.0005C63.9717 17.3378 62.1819 18.0063 60.0622 18.0063ZM62.0802 7.84936C61.5011 7.25835 60.743 6.96279 59.8055 6.96268C58.8923 6.96268 58.1279 7.26439 57.5125 7.86779C56.8968 8.47114 56.5075 9.28238 56.3444 10.3015H63.0709C62.9892 9.25785 62.659 8.44047 62.0802 7.84936Z" fill="#1C1E21"/>
<path d="M69.0757 7.20779H66.5319V4.94526H69.0757V1.20299H71.7416V4.94526H75.6063V7.20779H71.7416V12.9435C71.7416 13.8973 71.9049 14.5781 72.2309 14.9858C72.5568 15.3936 73.1154 15.5974 73.9063 15.5973C74.2568 15.5973 74.5543 15.583 74.7992 15.5545C75.0438 15.526 75.3129 15.4873 75.6063 15.4383V17.6763C75.2713 17.7732 74.9302 17.8468 74.5852 17.8965C74.1903 17.9547 73.7917 17.9832 73.3927 17.9821C70.5146 17.9821 69.0755 16.4085 69.0757 13.2615V7.20779Z" fill="#1C1E21"/>
<path d="M89.5 17.7004H86.8827V15.9149C86.418 16.5835 85.827 17.0992 85.1095 17.4619C84.392 17.8246 83.5766 18.0061 82.6635 18.0063C81.5384 18.0063 80.5416 17.7188 79.6733 17.144C78.8049 16.5692 78.1222 15.7783 77.6249 14.7715C77.1275 13.7645 76.8789 12.6129 76.8789 11.3166C76.8789 10.0121 77.1316 8.8584 77.637 7.85545C78.1426 6.85273 78.8417 6.06595 79.7346 5.49514C80.6273 4.92459 81.6526 4.63924 82.8102 4.63908C83.6825 4.63908 84.4652 4.80829 85.1584 5.14669C85.842 5.4774 86.4341 5.9708 86.8827 6.58361V4.94489H89.5V17.7004ZM86.8338 9.40874C86.5484 8.68308 86.0979 8.11029 85.4825 7.69036C84.8667 7.27052 84.1553 7.0606 83.3484 7.0606C82.2069 7.0606 81.2977 7.44377 80.6212 8.21015C79.9443 8.97657 79.6059 10.012 79.6061 11.3166C79.6061 12.6293 79.9322 13.6689 80.5844 14.4352C81.2366 15.2016 82.1212 15.5848 83.2384 15.5847C84.0616 15.5847 84.7954 15.3727 85.4397 14.9487C86.0835 14.525 86.5484 13.9543 86.8338 13.2366V9.40874Z" fill="#1C1E21"/>
<defs>
<linearGradient id="paint0_linear_8040_1232" x1="15.285" y1="9.21011" x2="9.21324" y2="1.25397" gradientUnits="userSpaceOnUse">
<stop offset="0.0006" stop-color="#0867DF"/>
<stop offset="0.4539" stop-color="#0668E1"/>
<stop offset="0.8591" stop-color="#0064E0"/>
</linearGradient>
<linearGradient id="paint1_linear_8040_1232" x1="3.46402" y1="4.05619" x2="7.62661" y2="0.895992" gradientUnits="userSpaceOnUse">
<stop offset="0.1323" stop-color="#0064DF"/>
<stop offset="0.9988" stop-color="#0064E0"/>
</linearGradient>
<linearGradient id="paint2_linear_8040_1232" x1="1.6999" y1="8.69514" x2="3.36967" y2="4.49184" gradientUnits="userSpaceOnUse">
<stop offset="0.0147" stop-color="#0072EC"/>
<stop offset="0.6881" stop-color="#0064DF"/>
</linearGradient>
<linearGradient id="paint3_linear_8040_1232" x1="1.47306" y1="11.733" x2="1.66626" y2="9.16597" gradientUnits="userSpaceOnUse">
<stop offset="0.0731" stop-color="#007CF6"/>
<stop offset="0.9943" stop-color="#0072EC"/>
</linearGradient>
<linearGradient id="paint4_linear_8040_1232" x1="1.57931" y1="13.123" x2="1.44111" y2="12.0945" gradientUnits="userSpaceOnUse">
<stop offset="0.0731" stop-color="#007FF9"/>
<stop offset="1" stop-color="#007CF6"/>
</linearGradient>
<linearGradient id="paint5_linear_8040_1232" x1="1.49816" y1="13.3971" x2="2.35943" y2="15.2238" gradientUnits="userSpaceOnUse">
<stop offset="0.0731" stop-color="#007FF9"/>
<stop offset="1" stop-color="#0082FB"/>
</linearGradient>
<linearGradient id="paint6_linear_8040_1232" x1="14.736" y1="4.55819" x2="15.8746" y2="2.98341" gradientUnits="userSpaceOnUse">
<stop offset="0.2799" stop-color="#007FF8"/>
<stop offset="0.9141" stop-color="#0082FB"/>
</linearGradient>
<linearGradient id="paint7_linear_8040_1232" x1="23.3926" y1="2.51439" x2="25.7747" y2="11.2768" gradientUnits="userSpaceOnUse">
<stop stop-color="#0082FB"/>
<stop offset="0.9995" stop-color="#0081FA"/>
</linearGradient>
<linearGradient id="paint8_linear_8040_1232" x1="26.3499" y1="11.6145" x2="24.8423" y2="14.6608" gradientUnits="userSpaceOnUse">
<stop offset="0.0619" stop-color="#0081FA"/>
<stop offset="1" stop-color="#0080F9"/>
</linearGradient>
<linearGradient id="paint9_linear_8040_1232" x1="23.6447" y1="16.2718" x2="25.0539" y2="15.312" gradientUnits="userSpaceOnUse">
<stop stop-color="#027AF3"/>
<stop offset="1" stop-color="#0080F9"/>
</linearGradient>
<linearGradient id="paint10_linear_8040_1232" x1="21.4344" y1="16.4587" x2="23.3925" y2="16.4587" gradientUnits="userSpaceOnUse">
<stop stop-color="#0377EF"/>
<stop offset="0.9994" stop-color="#0279F1"/>
</linearGradient>
<linearGradient id="paint11_linear_8040_1232" x1="19.7317" y1="15.3836" x2="21.1395" y2="16.2118" gradientUnits="userSpaceOnUse">
<stop offset="0.0019" stop-color="#0471E9"/>
<stop offset="1" stop-color="#0377EF"/>
</linearGradient>
<linearGradient id="paint12_linear_8040_1232" x1="15.4376" y1="9.27416" x2="19.9473" y2="14.9442" gradientUnits="userSpaceOnUse">
<stop offset="0.2765" stop-color="#0867DF"/>
<stop offset="1" stop-color="#0471E9"/>
</linearGradient>
</defs>
</svg>
