<svg width="40" height="26" viewBox="0 0 40 26" fill="none" xmlns="http://www.w3.org/2000/svg">
<path d="M12.6097 2.02295C12.5985 2.02295 12.5874 2.02299 12.5762 2.02305L12.5305 5.79823C12.541 5.79811 12.5514 5.79802 12.5619 5.79802C15.0467 5.79802 16.9742 7.75724 21.1634 14.8136L21.4187 15.2432L21.4354 15.2713L23.7805 11.7527L23.7643 11.7255C23.2124 10.8279 22.6822 10.0021 22.1737 9.248C21.584 8.37425 21.02 7.5937 20.4727 6.89681C17.7014 3.36823 15.3832 2.02295 12.6097 2.02295Z" fill="url(#paint0_linear_8219_796)"/>
<path d="M12.5755 2.02305C9.78852 2.03738 7.32463 3.83957 5.54547 6.5973C5.54025 6.60536 5.53504 6.61345 5.52985 6.62156L8.79568 8.39911C8.80099 8.39107 8.8063 8.38303 8.81163 8.37501C9.85055 6.81078 11.1435 5.81309 12.5298 5.79823C12.5403 5.79811 12.5507 5.79802 12.5612 5.79802L12.609 2.02295C12.5978 2.02295 12.5867 2.02299 12.5755 2.02305Z" fill="url(#paint1_linear_8219_796)"/>
<path d="M5.54577 6.59961C5.54058 6.60767 5.53536 6.61576 5.53015 6.62387C4.36105 8.44376 3.48952 10.677 3.01852 13.0863C3.01648 13.0967 3.01445 13.1071 3.01242 13.1176L6.68145 13.9833C6.68338 13.9728 6.68531 13.9624 6.68724 13.9519C7.07942 11.8346 7.82607 9.87082 8.79598 8.40142C8.80127 8.39338 8.8066 8.38534 8.81193 8.37732L5.54577 6.59961Z" fill="url(#paint2_linear_8219_796)"/>
<path d="M6.68715 13.953L3.01841 13.0874C3.01637 13.0978 3.01434 13.1083 3.01232 13.1187C2.75548 14.4437 2.62482 15.79 2.62208 17.1397C2.62206 17.1506 2.62205 17.1615 2.62206 17.1724L6.38481 17.509C6.38451 17.4981 6.38419 17.4873 6.38394 17.4763C6.38208 17.398 6.38114 17.3187 6.38111 17.2383C6.383 16.1468 6.48348 15.0578 6.68136 13.9844C6.68327 13.974 6.6852 13.9635 6.68715 13.953Z" fill="url(#paint3_linear_8219_796)"/>
<path d="M6.49924 18.6771C6.43175 18.2892 6.3935 17.8968 6.38481 17.5031C6.38452 17.4922 6.38419 17.4814 6.38394 17.4704L2.62208 17.1338C2.62206 17.1447 2.62205 17.1556 2.62206 17.1665C2.62206 18.0065 2.6921 18.7951 2.82824 19.5216C2.83021 19.5321 2.83215 19.5424 2.83414 19.5529L6.50494 18.7085C6.50301 18.6981 6.50112 18.6876 6.49924 18.6771Z" fill="url(#paint4_linear_8219_796)"/>
<path d="M7.35645 20.6301C6.94701 20.1832 6.65724 19.5385 6.50489 18.714C6.50296 18.7036 6.5011 18.6931 6.49921 18.6826L2.82819 19.5271C2.83015 19.5376 2.83209 19.548 2.83409 19.5585C3.11156 21.0152 3.65572 22.2294 4.43501 23.1479C4.44194 23.156 4.44889 23.1642 4.45587 23.1724L7.37834 20.6536C7.37103 20.6459 7.36368 20.638 7.35645 20.6301Z" fill="url(#paint5_linear_8219_796)"/>
<path d="M18.2321 10.1846C16.02 13.5777 14.6799 15.7059 14.6799 15.7059C11.7331 20.3252 10.7136 21.3605 9.07299 21.3605C8.38839 21.3605 7.81647 21.1167 7.37832 20.6508C7.37102 20.643 7.36369 20.6351 7.35645 20.6273L4.435 23.145C4.44193 23.1532 4.44888 23.1613 4.45586 23.1695C5.53188 24.4238 7.05069 25.1198 8.92964 25.1198C11.7724 25.1198 13.8169 23.7795 17.4514 17.4262C17.4514 17.4262 18.9666 14.7506 20.0089 12.9076C19.3632 11.8651 18.7757 10.9627 18.2321 10.1846Z" fill="#0082FB"/>
<path d="M22.1754 4.83154C22.168 4.83947 22.1604 4.84755 22.1529 4.8555C21.572 5.47442 21.0145 6.16561 20.4721 6.89896C21.0194 7.59587 21.5844 8.37794 22.1741 9.25167C22.8692 8.17891 23.518 7.31007 24.1539 6.64413C24.1614 6.63625 24.1688 6.62858 24.1763 6.62072L22.1754 4.83154Z" fill="url(#paint6_linear_8219_796)"/>
<path d="M32.9152 4.49606C31.3723 2.93747 29.5329 2.02295 27.5665 2.02295C25.4928 2.02295 23.7486 3.15927 22.1754 4.82868C22.1679 4.83658 22.1603 4.84467 22.1529 4.85262L24.1538 6.64124C24.1614 6.63336 24.1687 6.62569 24.1763 6.61786C25.2127 5.53983 26.2157 5.00159 27.3276 5.00159C28.5245 5.00159 29.6446 5.56494 30.6147 6.55255C30.6223 6.56029 30.6299 6.56796 30.6375 6.57575L32.9381 4.51927C32.9306 4.51148 32.9227 4.50381 32.9152 4.49606Z" fill="#0082FB"/>
<path d="M37.3747 16.6384C37.2883 11.6341 35.5371 7.1603 32.9378 4.51832C32.93 4.51053 32.9224 4.50286 32.9146 4.49512L30.6144 6.5516C30.6219 6.55934 30.6295 6.56701 30.6371 6.5748C32.5925 8.58348 33.9339 12.3197 34.0558 16.6374C34.0561 16.6482 34.0563 16.6591 34.0568 16.67L37.3751 16.671C37.3751 16.6602 37.3749 16.6493 37.3747 16.6384Z" fill="url(#paint7_linear_8219_796)"/>
<path d="M37.3751 16.6743C37.3751 16.6634 37.3749 16.6526 37.3747 16.6417L34.0559 16.6406C34.0561 16.6515 34.0563 16.6624 34.0568 16.6732C34.0621 16.8759 34.0648 17.0798 34.0648 17.2849C34.0648 18.4621 33.8891 19.4137 33.5314 20.1007C33.5261 20.1109 33.5206 20.1211 33.5153 20.1312L35.9897 22.7047C35.9959 22.6954 36.0018 22.6861 36.008 22.6767C36.9063 21.2906 37.3779 19.365 37.3779 17.03C37.3779 16.9111 37.377 16.7926 37.3751 16.6743Z" fill="url(#paint8_linear_8219_796)"/>
<path d="M33.532 20.0962C33.5267 20.1064 33.5212 20.1166 33.5159 20.1267C33.2064 20.7058 32.7647 21.092 32.1874 21.2609L33.3153 24.816C33.4647 24.7653 33.6101 24.7083 33.7516 24.6451C33.7938 24.6263 33.8359 24.607 33.8775 24.5871C33.9014 24.5756 33.9252 24.5639 33.9489 24.5521C34.6948 24.1804 35.3252 23.632 35.8349 22.9256C35.8662 22.8825 35.897 22.839 35.9271 22.7947C35.9484 22.7634 35.9696 22.732 35.9902 22.7002C35.9964 22.6908 36.0024 22.6815 36.0086 22.6722L33.532 20.0962Z" fill="url(#paint9_linear_8219_796)"/>
<path d="M31.4686 21.3565C31.0905 21.3565 30.7567 21.3002 30.43 21.1543L29.275 24.794C29.9242 25.0157 30.6168 25.1156 31.3891 25.1156C32.1006 25.1156 32.7537 25.0093 33.3459 24.804L32.2182 21.2501C31.9752 21.323 31.7225 21.3588 31.4686 21.3565Z" fill="url(#paint10_linear_8219_796)"/>
<path d="M29.1575 20.1161C29.1504 20.1079 29.1432 20.0996 29.1359 20.0913L26.4782 22.8554C26.4858 22.8633 26.4931 22.8712 26.5005 22.8791C27.424 23.8633 28.3059 24.4737 29.3059 24.8088L30.46 21.1718C30.0387 20.9908 29.6309 20.6627 29.1575 20.1161Z" fill="url(#paint11_linear_8219_796)"/>
<path d="M29.1362 20.0888C28.3391 19.1617 27.3529 17.6182 25.8018 15.1222L23.7802 11.7508L23.764 11.7236L21.4185 15.2413L21.4352 15.2694L22.8675 17.6789C24.2559 20.0023 25.387 21.6832 26.4785 22.8528C26.4861 22.8608 26.4935 22.8687 26.5008 22.8766L29.1576 20.1135C29.1505 20.1054 29.1433 20.0971 29.1362 20.0888Z" fill="url(#paint12_linear_8219_796)"/>
<defs>
<linearGradient id="paint0_linear_8219_796" x1="22.2218" y1="13.8404" x2="14.4361" y2="3.6384" gradientUnits="userSpaceOnUse">
<stop offset="0.0006" stop-color="#0867DF"/>
<stop offset="0.4539" stop-color="#0668E1"/>
<stop offset="0.8591" stop-color="#0064E0"/>
</linearGradient>
<linearGradient id="paint1_linear_8219_796" x1="7.06387" y1="7.23163" x2="12.4015" y2="3.17937" gradientUnits="userSpaceOnUse">
<stop offset="0.1323" stop-color="#0064DF"/>
<stop offset="0.9988" stop-color="#0064E0"/>
</linearGradient>
<linearGradient id="paint2_linear_8219_796" x1="4.80179" y1="13.1805" x2="6.9429" y2="7.79066" gradientUnits="userSpaceOnUse">
<stop offset="0.0147" stop-color="#0072EC"/>
<stop offset="0.6881" stop-color="#0064DF"/>
</linearGradient>
<linearGradient id="paint3_linear_8219_796" x1="4.51093" y1="17.0753" x2="4.75867" y2="13.7836" gradientUnits="userSpaceOnUse">
<stop offset="0.0731" stop-color="#007CF6"/>
<stop offset="0.9943" stop-color="#0072EC"/>
</linearGradient>
<linearGradient id="paint4_linear_8219_796" x1="4.64717" y1="18.8574" x2="4.46996" y2="17.5386" gradientUnits="userSpaceOnUse">
<stop offset="0.0731" stop-color="#007FF9"/>
<stop offset="1" stop-color="#007CF6"/>
</linearGradient>
<linearGradient id="paint5_linear_8219_796" x1="4.5431" y1="19.2093" x2="5.64749" y2="21.5517" gradientUnits="userSpaceOnUse">
<stop offset="0.0731" stop-color="#007FF9"/>
<stop offset="1" stop-color="#0082FB"/>
</linearGradient>
<linearGradient id="paint6_linear_8219_796" x1="21.5178" y1="7.87519" x2="22.9778" y2="5.85588" gradientUnits="userSpaceOnUse">
<stop offset="0.2799" stop-color="#007FF8"/>
<stop offset="0.9141" stop-color="#0082FB"/>
</linearGradient>
<linearGradient id="paint7_linear_8219_796" x1="32.618" y1="5.25426" x2="35.6724" y2="16.4901" gradientUnits="userSpaceOnUse">
<stop stop-color="#0082FB"/>
<stop offset="0.9995" stop-color="#0081FA"/>
</linearGradient>
<linearGradient id="paint8_linear_8219_796" x1="36.4101" y1="16.9233" x2="34.4769" y2="20.8295" gradientUnits="userSpaceOnUse">
<stop offset="0.0619" stop-color="#0081FA"/>
<stop offset="1" stop-color="#0080F9"/>
</linearGradient>
<linearGradient id="paint9_linear_8219_796" x1="32.9411" y1="22.896" x2="34.7481" y2="21.6652" gradientUnits="userSpaceOnUse">
<stop stop-color="#027AF3"/>
<stop offset="1" stop-color="#0080F9"/>
</linearGradient>
<linearGradient id="paint10_linear_8219_796" x1="30.1068" y1="23.135" x2="32.6177" y2="23.135" gradientUnits="userSpaceOnUse">
<stop stop-color="#0377EF"/>
<stop offset="0.9994" stop-color="#0279F1"/>
</linearGradient>
<linearGradient id="paint11_linear_8219_796" x1="27.9236" y1="21.7565" x2="29.7288" y2="22.8185" gradientUnits="userSpaceOnUse">
<stop offset="0.0019" stop-color="#0471E9"/>
<stop offset="1" stop-color="#0377EF"/>
</linearGradient>
<linearGradient id="paint12_linear_8219_796" x1="22.4174" y1="13.9228" x2="28.2001" y2="21.1934" gradientUnits="userSpaceOnUse">
<stop offset="0.2765" stop-color="#0867DF"/>
<stop offset="1" stop-color="#0471E9"/>
</linearGradient>
</defs>
</svg>
